{"title":"The Host 2013 HDRip CROPPED XviD Feel-Free","uid":8392292,"size":1344587401,"categoryP":"video","categoryS":"movies","magnet":"?xt=urn:btih:fef9580b00149569fead21144afe178abac2c4ef&amp;dn=The+Host+2013+HDRip+CROPPED+XviD+Feel-Free&amp;tr=udp%3A%2F%2Ftracker.openbittorrent.com%3A80&amp;tr=udp%3A%2F%2Fopen.demonii.com%3A1337&amp;tr=udp%3A%2F%2Ftracker.coppersurfer.tk%3A6969&amp;tr=udp%3A%2F%2Fexodus.desync.com%3A6969","seeders":0,"leechers":0,"uploader":"Gh0stNet","files":7,"time":1366470270,"description":"Genre:Action | Adventure | Romance\nLanguage:English\nIMDb:http://www.imdb.com/title/tt1517260/\nSource:JYK Thanks\nSample:Never\nEncoder:Tony\n\nFormat                                   : AVI\nFormat/Info                              : Audio Video Interleave\nFile size                                : 1.25 GiB\nDuration                                 : 2h 10mn\nOverall bit rate                         : 1 371 Kbps\n\nVideo\nID                                       : 0\nFormat                                   : MPEG-4 Visual\nFormat profile                           : Advanced Simple@L5\nFormat settings, BVOP                    : 1\nFormat settings, QPel                    : No\nFormat settings, GMC                     : No warppoints\nFormat settings, Matrix                  : Default (H.263)\nCodec ID                                 : XVID\nCodec ID/Hint                            : XviD\nDuration                                 : 2h 10mn\nBit rate                                 : 1 199 Kbps\nWidth                                    : 640 pixels\nHeight                                   : 248 pixels\nDisplay aspect ratio                     : 2.581\nFrame rate                               : 29.970 fps\nColor space                              : YUV\nChroma subsampling                       : 4:2:0\nBit depth                                : 8 bits\nScan type                                : Progressive\nCompression mode                         : Lossy\nBits/(Pixel*Frame)                       : 0.252\nStream size                              : 1.09 GiB (87%)\nWriting library                          : XviD 1.2.1 (UTC 2008-12-04)\n\nAudio\nID                                       : 1\nFormat                                   : AC-3\nFormat/Info                              : Audio Coding 3\nMode extension                           : CM (complete main)\nCodec ID                                 : 2000\nDuration                                 : 2h 10mn\nBit rate mode                            : Constant\nBit rate                                 : 160 Kbps\nChannel(s)                               : 2 channels\nChannel positions                        : Front: L R\nSampling rate                            : 48.0 KHz\nBit depth                                : 16 bits\nCompression mode                         : Lossy\nStream size                              : 149 MiB (12%)\nAlignment                                : Aligned on interleaves\nInterleave, duration                     : 33 ms (1.00 video frame)\nInterleave, preload duration             : 512 ms\n\n \nPlot:\nWhen an unseen enemy threatens mankind by taking over their bodies and erasing their memories, Melanie will risk everything to protect the people she cares most about, proving that love can conquer all in a dangerous new world.\n\nScreens:\n &lt;a href=&quot;\nhttp://i.imgur.com/nTCU1wA.png&quot; rel=&quot;nofollow&quot; target=&quot;_NEW&quot;&gt;\nhttp://i.imgur.com/nTCU1wA.png&lt;/a&gt; &lt;a href=&quot;\nhttp://i.imgur.com/CP6wshh.png&quot; rel=&quot;nofollow&quot; target=&quot;_NEW&quot;&gt;\nhttp://i.imgur.com/CP6wshh.png&lt;/a&gt; &lt;a href=&quot;\nhttp://i.imgur.com/S1Otkj6.png&quot; rel=&quot;nofollow&quot; target=&quot;_NEW&quot;&gt;\nhttp://i.imgur.com/S1Otkj6.png&lt;/a&gt; &lt;a href=&quot;\nhttp://i.imgur.com/2CmGqxU.png&quot; rel=&quot;nofollow&quot; target=&quot;_NEW&quot;&gt;\nhttp://i.imgur.com/2CmGqxU.png&lt;/a&gt; &lt;a href=&quot;\nhttp://i.imgur.com/tdzwy21.png&quot; rel=&quot;nofollow&quot; target=&quot;_NEW&quot;&gt;\nhttp://i.imgur.com/tdzwy21.png&lt;/a&gt;","torrent":{"xt":"urn:btih:fef9580b00149569fead21144afe178abac2c4ef","amp;dn":"The+Host+2013+HDRip+CROPPED+XviD+Feel-Free","amp;tr":["udp%3A%2F%2Ftracker.openbittorrent.com%3A80","udp%3A%2F%2Fopen.demonii.com%3A1337","udp%3A%2F%2Ftracker.coppersurfer.tk%3A6969","udp%3A%2F%2Fexodus.desync.com%3A6969"],"infoHash":"fef9580b00149569fead21144afe178abac2c4ef","infoHashBuffer":{"type":"Buffer","data":[254,249,88,11,0,20,149,105,254,173,33,20,74,254,23,138,186,194,196,239]},"announce":[],"urlList":[]}}